# xmcd
#
# Track frame offsets:
#	150
#	11656
#	29611
#	46306
#	59702
#	70830
#	83533
#	101004
#	117834
#	133909
#	145134
#	155573
#	170597
#
# Disc length: 2438 seconds
#
# Revision: 1
# Processed by: cddbd v1.5.2PL0 Copyright (c) Steve Scherf et al.
# Submitted via: audiograbber 1.83.01
#
DISCID=b709840d
DTITLE=Mark Merritt and Sievert Ahrend - Island Paradise
DYEAR=2009
DGENRE=Country
TTITLE0=Boats, Beaches
TTITLE1=Take Me To The Cleaners
TTITLE2=You And Me
TTITLE3=Come On Baby
TTITLE4=Fin And The Chicken
TTITLE5=Your Luck´s Run Out This Time
TTITLE6=She Left The Beer
TTITLE7=Keep The Wind In Your Sails
TTITLE8=In A Stranger´s Arms
TTITLE9=Jack And Jill
TTITLE10=Swimming In Boubon
TTITLE11=How Many Ways
TTITLE12=Islands Paradise
EXTD=
EXTT0=
EXTT1=
EXTT2=
EXTT3=
EXTT4=
EXTT5=
EXTT6=
EXTT7=
EXTT8=
EXTT9=
EXTT10=
EXTT11=
EXTT12=
PLAYORDER=
